<svg width="190" height="103" viewBox="0 0 190 103" fill="none" xmlns="http://www.w3.org/2000/svg">
<path fill-rule="evenodd" clip-rule="evenodd" d="M128.256 26.0918C131.296 43.2877 123.965 59.3451 107.576 66.1156C90.8285 73.006 71.5187 65.9359 63.3537 49.6388L61.9233 46.4033L62.8769 49.8784C70.3267 71.9874 96.9671 80.4954 115.919 67.0743C129.508 57.3679 133.322 41.6699 128.256 26.0918Z" fill="#519819"/>
<path fill-rule="evenodd" clip-rule="evenodd" d="M61.8042 46.0437C61.8637 46.1633 61.8637 46.2828 61.9231 46.3426C61.8637 46.2828 61.8637 46.1633 61.8042 46.0437Z" fill="#519819"/>
<path fill-rule="evenodd" clip-rule="evenodd" d="M128.018 25.4925L128.256 26.0917L128.078 25.4326L128.018 25.4925Z" fill="#519819"/>
<path fill-rule="evenodd" clip-rule="evenodd" d="M63.7709 27.8893C64.4265 25.7323 65.2608 23.6352 66.3932 21.5382C74.737 5.36087 94.0468 -1.76913 110.734 5.42078L113.118 6.6191L113.178 6.49927L110.913 5.00137C91.0669 -7.04173 65.2012 3.68322 59.3606 26.2715C59.1818 27.0504 59.003 27.7694 58.8242 28.5483C59.8374 28.069 61.0294 27.7694 62.2213 27.7694C62.8173 27.7694 63.2941 27.7694 63.7709 27.8893Z" fill="#519819"/>
<path fill-rule="evenodd" clip-rule="evenodd" d="M96.6693 36.5171C105.669 33.5813 107.993 30.1061 107.993 27.7694C107.993 25.912 106.145 25.4926 104.596 25.4926C98.5168 25.4327 91.663 31.7239 91.8418 37.8952C91.9014 41.0108 93.5106 44.0665 96.9077 44.0665C100.245 44.0665 103.821 41.7897 106.682 39.2733C107.218 40.7712 108.351 41.9695 110.198 41.9695C113.714 41.9695 117.588 38.6741 119.793 36.1576L119.495 34.7796C117.588 36.2775 114.608 38.8539 112.105 38.8539C110.973 38.8539 109.781 38.3745 109.9 37.0564L109.96 36.637C116.754 34.4201 118.542 31.4243 118.542 29.6867C118.542 28.2487 117.111 27.9492 115.979 27.9492C111.569 27.8893 106.682 32.2631 106.384 36.7568C104.238 38.3745 101.676 39.9323 99.4108 39.9323C97.9208 39.9323 96.3713 39.3332 96.4905 37.5357L96.6693 36.5171ZM103.285 28.2487C103.642 28.1289 103.821 28.4285 103.821 28.788C103.881 29.5669 101.02 32.8024 96.9077 34.2403C98.2188 31.1247 100.96 28.8479 103.285 28.2487ZM115.026 30.0462C115.264 29.9863 115.443 30.1661 115.443 30.4656C115.502 31.0648 113.357 33.5213 110.258 34.5998C111.152 32.2032 113.238 30.5256 115.026 30.0462Z" fill="#519819"/>
<path fill-rule="evenodd" clip-rule="evenodd" d="M66.9297 36.0377C66.9297 36.1576 66.9893 36.2774 66.9893 36.3373C66.6317 37.5356 66.8701 39.5129 67.5852 42.5686C71.3399 59.6446 92.0801 70.07 106.86 59.6446C99.0531 61.3822 93.5701 62.6404 85.7031 58.9256C76.823 54.7315 73.4855 48.1407 72.0551 39.393C74.8562 39.6327 77.2402 39.9922 80.2797 40.831C93.3913 44.4859 98.0399 50.4775 106.86 59.6446C102.569 48.0808 91.3649 39.8724 79.5645 36.3373C91.3649 32.9221 102.629 24.7735 106.98 13.2098C98.1591 22.317 93.3913 28.3086 80.2797 31.8436C77.2402 32.6824 74.7966 33.0419 72.0551 33.2217C73.5451 24.474 76.9422 17.9431 85.8223 13.8089C93.6893 10.1541 99.1723 11.4722 106.98 13.2098C92.2589 2.66457 71.4591 12.9701 67.5852 30.0461C67.168 31.9635 66.8701 33.4613 66.8105 34.5998C66.3933 32.5027 64.5457 30.885 62.281 30.885C59.7183 30.885 57.6323 32.982 57.6323 35.4985C57.6323 38.0749 59.7183 40.1719 62.2214 40.1719C64.6649 40.2318 66.6913 38.3745 66.9297 36.0377Z" fill="#519819"/>
<path fill-rule="evenodd" clip-rule="evenodd" d="M122.535 28.6082C124.204 38.2547 121.701 43.8269 116.397 51.3763L119.257 49.0396C127.78 40.1121 127.124 24.4141 118.9 15.1271C114.728 10.3938 112.582 9.79463 106.98 8.23682C115.92 13.2098 120.688 17.9432 122.535 28.6082Z" fill="#519819"/>
<path d="M0.000976562 102.125V84.0898H2.92129V99.6081H10.5499V102.125H0.000976562Z" fill="#1D1D1B"/>
<path d="M25.688 102.125L23.9 97.0922H16.9866L15.2583 102.125H12.1592L18.8938 84.0305H22.0525L28.7871 102.125H25.688ZM23.0657 94.5757L21.3969 89.6626C21.2777 89.363 21.0989 88.8238 20.8605 88.1048C20.6221 87.3858 20.5029 86.9065 20.3837 86.547C20.1453 87.5656 19.8474 88.644 19.4302 89.8424L17.821 94.5158H23.0657V94.5757Z" fill="#1D1D1B"/>
<path d="M46.1301 102.125H42.5542L33.7336 87.7454H33.6144L33.674 88.5244C33.7932 90.0822 33.8528 91.4602 33.8528 92.7185V102.125H31.1709V84.0906H34.7468L43.5673 98.4105H43.6269C43.6269 98.2307 43.5673 97.5117 43.5077 96.3134C43.4481 95.1151 43.4481 94.2164 43.4481 93.5573V84.0906H46.1301V102.125Z" fill="#1D1D1B"/>
<path d="M65.0825 92.8981C65.0825 95.8939 64.2481 98.1707 62.639 99.7285C61.0298 101.286 58.6459 102.065 55.5468 102.065H50.5405V84.0305H56.0236C58.8843 84.0305 61.0894 84.8094 62.6986 86.3672C64.3077 87.925 65.0825 90.1419 65.0825 92.8981ZM61.9834 93.0179C61.9834 88.704 59.9571 86.547 55.964 86.547H53.4012V99.6686H55.4872C59.8379 99.6087 61.9834 97.4517 61.9834 93.0179Z" fill="#1D1D1B"/>
<path d="M68.4795 84.0906H74.0818C76.6445 84.0906 78.492 84.4501 79.6244 85.1691C80.7568 85.8881 81.3527 87.0265 81.3527 88.6442C81.3527 89.7227 81.1144 90.6214 80.578 91.2805C80.1012 91.9995 79.386 92.359 78.5516 92.5387V92.6586C79.684 92.8982 80.5184 93.3775 80.9952 94.0965C81.4719 94.8155 81.7699 95.7143 81.7699 96.9126C81.7699 98.5303 81.1739 99.8485 79.982 100.747C78.79 101.646 77.1809 102.125 75.1545 102.125H68.4199V84.0906H68.4795ZM72.2342 91.2206H74.4393C75.4525 91.2206 76.2273 91.0408 76.7041 90.7412C77.1809 90.4417 77.4193 89.9024 77.4193 89.1235C77.4193 88.4045 77.1809 87.9252 76.6445 87.6256C76.1677 87.326 75.3333 87.1463 74.2606 87.1463H72.2342V91.2206ZM72.2342 94.2763V98.9497H74.7373C75.8101 98.9497 76.5849 98.77 77.0617 98.3506C77.5385 97.9312 77.8365 97.332 77.8365 96.4932C77.8365 94.9953 76.7637 94.2763 74.6181 94.2763H72.2342Z" fill="#519819"/>
<path d="M95.4775 102.125H85.167V84.0906H95.4775V87.2062H88.9217V91.1607H95.0007V94.2763H88.9217V98.9497H95.4775V102.125Z" fill="#519819"/>
<path d="M109.364 102.125H99.0532V84.0906H109.364V87.2062H102.808V91.1607H108.887V94.2763H102.808V98.9497H109.364V102.125Z" fill="#519819"/>
<path d="M124.919 89.5429C124.919 91.4003 124.323 92.8982 123.072 93.8569C121.82 94.8754 120.092 95.3548 117.827 95.3548H115.979V102.125H113.059V84.0906H118.244C120.509 84.0906 122.178 84.5699 123.31 85.4686C124.323 86.3674 124.919 87.7454 124.919 89.5429ZM115.979 92.8982H117.529C119.019 92.8982 120.151 92.6586 120.866 92.1193C121.582 91.5801 121.939 90.7412 121.939 89.6628C121.939 88.6442 121.641 87.8653 120.986 87.326C120.33 86.7868 119.377 86.5471 118.065 86.5471H116.039V92.8982H115.979Z" fill="#1D1D1B"/>
<path d="M127.899 102.125V84.0906H130.819V99.6088H138.448V102.125H127.899Z" fill="#1D1D1B"/>
<path d="M153.526 102.125L151.738 97.0922H144.885L143.156 102.125H140.057L146.792 84.0305H150.01L156.745 102.125H153.526ZM150.964 94.5757L149.295 89.6626C149.176 89.363 148.997 88.8238 148.758 88.1048C148.52 87.3858 148.401 86.9065 148.282 86.547C148.043 87.5656 147.745 88.644 147.328 89.8424L145.719 94.5158H150.964V94.5757Z" fill="#1D1D1B"/>
<path d="M174.028 102.125H170.452L161.632 87.7454H161.512L161.572 88.5244C161.691 90.0822 161.751 91.4602 161.751 92.7185V102.125H159.069V84.0906H162.645L171.465 98.4105H171.525C171.525 98.2307 171.465 97.5117 171.406 96.3134C171.346 95.1151 171.346 94.2164 171.346 93.5573V84.0906H174.028V102.125Z" fill="#1D1D1B"/>
<path d="M184.756 102.125H181.835V86.6071H176.531V84.0906H190V86.6071H184.756V102.125Z" fill="#1D1D1B"/>
</svg>
