<svg width="384" height="99" viewBox="0 0 384 99" fill="none" xmlns="http://www.w3.org/2000/svg">
<path fill-rule="evenodd" clip-rule="evenodd" d="M95.368 35.1454C99.4724 58.3081 89.5735 79.9374 67.4416 89.0573C44.8269 98.3385 18.7516 88.8151 7.72594 66.863L5.79443 62.5049L7.0821 67.1858C17.142 96.9665 53.1163 108.427 78.7087 90.3486C97.058 77.2741 102.209 56.1291 95.368 35.1454Z" fill="#519819"/>
<path fill-rule="evenodd" clip-rule="evenodd" d="M5.63379 62.0206C5.71408 62.1817 5.71408 62.3427 5.79437 62.4232C5.71408 62.3427 5.71408 62.1817 5.63379 62.0206Z" fill="#519819"/>
<path fill-rule="evenodd" clip-rule="evenodd" d="M95.0464 34.3383L95.3683 35.1454L95.1269 34.2576L95.0464 34.3383Z" fill="#519819"/>
<path fill-rule="evenodd" clip-rule="evenodd" d="M8.28917 37.5666C9.17444 34.6612 10.3012 31.8365 11.8303 29.0117C23.0974 7.22103 49.1727 -2.38302 71.7069 7.30174L74.9261 8.91587L75.0066 8.75445L71.9484 6.7368C45.1487 -9.48518 10.2207 4.96126 2.33369 35.3875C2.09225 36.4367 1.85081 37.4052 1.60938 38.4544C2.97752 37.8087 4.58712 37.4052 6.1967 37.4052C7.0015 37.4052 7.64533 37.4052 8.28917 37.5666Z" fill="#519819"/>
<path fill-rule="evenodd" clip-rule="evenodd" d="M52.7139 49.1883C64.8663 45.2337 68.005 40.5528 68.005 37.4052C68.005 34.9033 65.5101 34.3384 63.4176 34.3384C55.2087 34.2577 45.9536 42.7318 46.1951 51.0446C46.2755 55.2413 48.4485 59.3573 53.0358 59.3573C57.5426 59.3573 62.3714 56.2905 66.2344 52.9008C66.9587 54.9185 68.4878 56.5326 70.9827 56.5326C75.731 56.5326 80.9621 52.0938 83.9399 48.7041L83.5375 46.8478C80.9621 48.8655 76.9382 52.3359 73.558 52.3359C72.0289 52.3359 70.4193 51.6902 70.5803 49.9147L70.6608 49.3497C79.8354 46.3636 82.2498 42.3283 82.2498 39.9878C82.2498 38.0509 80.3183 37.6473 78.7892 37.6473C72.8337 37.5666 66.2344 43.4582 65.832 49.5112C62.9348 51.6902 59.4742 53.7886 56.4159 53.7886C54.404 53.7886 52.3115 52.9815 52.4724 50.5603L52.7139 49.1883ZM61.6471 38.0509C62.13 37.8894 62.3714 38.293 62.3714 38.7772C62.4519 39.8264 58.5889 44.1845 53.0358 46.1215C54.8064 41.9248 58.5084 38.8579 61.6471 38.0509ZM77.5015 40.472C77.8235 40.3913 78.0649 40.6335 78.0649 41.037C78.1454 41.8441 75.2481 45.153 71.0632 46.6057C72.2704 43.3775 75.0872 41.1177 77.5015 40.472Z" fill="#519819"/>
<path fill-rule="evenodd" clip-rule="evenodd" d="M12.5548 48.5427C12.5548 48.7041 12.6353 48.8655 12.6353 48.9462C12.1524 50.5604 12.4743 53.2237 13.4401 57.3397C18.5103 80.341 46.5171 94.3839 66.476 80.341C55.9332 82.6815 48.5291 84.3763 37.9058 79.3725C25.9144 73.7231 21.4075 64.8454 19.476 53.0622C23.2585 53.3851 26.4777 53.8693 30.5822 54.9992C48.2876 59.9223 54.565 67.9929 66.476 80.341C60.6814 64.7647 45.5513 53.7079 29.6164 48.9462C45.5513 44.346 60.7619 33.3699 66.6369 17.7936C54.726 30.061 48.2876 38.1316 30.5822 42.8933C26.4777 44.0231 23.1781 44.5074 19.476 44.7495C21.488 32.9664 26.0753 24.1694 38.0667 18.6007C48.69 13.6776 56.0941 15.4531 66.6369 17.7936C46.7585 3.58928 18.6712 17.4708 13.4401 40.4721C12.8767 43.0547 12.4743 45.0723 12.3938 46.6057C11.8305 43.781 9.33561 41.6019 6.27739 41.6019C2.81678 41.6019 0 44.4267 0 47.8163C0 51.2867 2.81678 54.1114 6.19691 54.1114C9.49657 54.1921 12.2329 51.6902 12.5548 48.5427Z" fill="#519819"/>
<path fill-rule="evenodd" clip-rule="evenodd" d="M87.6423 38.5351C89.8958 51.5289 86.5156 59.0345 79.353 69.2035L83.216 66.056C94.7245 54.0307 93.8393 32.8857 82.7331 20.3762C77.0995 14.0004 74.2023 13.1934 66.6372 11.095C78.7091 17.7936 85.1475 24.1694 87.6423 38.5351Z" fill="#519819"/>
<path d="M127.432 62.0883V37.7957H131.375V58.6987H141.676V62.0883H127.432Z" fill="#444444"/>
<path d="M162.118 62.0891L159.704 55.3098H150.368L148.035 62.0891H143.85L152.944 37.7158H157.209L166.303 62.0891H162.118ZM158.577 51.9201L156.324 45.3022C156.163 44.8987 155.922 44.1723 155.6 43.2038C155.278 42.2354 155.117 41.5897 154.956 41.1055C154.634 42.4775 154.231 43.9302 153.668 45.5443L151.495 51.8394H158.577V51.9201Z" fill="#444444"/>
<path d="M189.723 62.0892H184.894L172.983 42.7196H172.822L172.903 43.7688C173.064 45.8672 173.144 47.7234 173.144 49.4183V62.0892H169.522V37.7966H174.351L186.262 57.0854H186.343C186.343 56.8432 186.262 55.8748 186.182 54.2606C186.101 52.6465 186.101 51.4359 186.101 50.5482V37.7966H189.723V62.0892Z" fill="#444444"/>
<path d="M215.315 49.6604C215.315 53.6957 214.188 56.7625 212.016 58.8609C209.843 60.9592 206.623 62.0084 202.438 62.0084H195.678V37.7158H203.082C206.945 37.7158 209.923 38.765 212.096 40.8634C214.269 42.9617 215.315 45.9479 215.315 49.6604ZM211.13 49.8218C211.13 44.0109 208.394 41.1055 203.002 41.1055H199.541V58.7802H202.358C208.233 58.6995 211.13 55.794 211.13 49.8218Z" fill="#444444"/>
<path d="M219.902 37.7966H227.467C230.928 37.7966 233.423 38.2808 234.952 39.2493C236.481 40.2177 237.286 41.7512 237.286 43.9302C237.286 45.383 236.964 46.5935 236.24 47.4813C235.596 48.4498 234.63 48.934 233.503 49.1761V49.3376C235.032 49.6604 236.159 50.306 236.803 51.2745C237.447 52.243 237.849 53.4536 237.849 55.0677C237.849 57.2468 237.044 59.0223 235.435 60.2329C233.825 61.4435 231.652 62.0892 228.916 62.0892H219.822V37.7966H219.902ZM224.972 47.4006H227.95C229.318 47.4006 230.365 47.1585 231.008 46.755C231.652 46.3514 231.974 45.6251 231.974 44.5759C231.974 43.6074 231.652 42.9618 230.928 42.5582C230.284 42.1547 229.157 41.9126 227.709 41.9126H224.972V47.4006V47.4006ZM224.972 51.5166V57.8117H228.353C229.801 57.8117 230.847 57.5696 231.491 57.0047C232.135 56.4397 232.538 55.6327 232.538 54.5028C232.538 52.4851 231.089 51.5166 228.192 51.5166H224.972V51.5166Z" fill="#519819"/>
<path d="M256.359 62.0892H242.437V37.7966H256.359V41.9933H247.507V47.3199H255.716V51.5166H247.507V57.8117H256.359V62.0892Z" fill="#519819"/>
<path d="M275.111 62.0892H261.188V37.7966H275.111V41.9933H266.258V47.3199H274.467V51.5166H266.258V57.8117H275.111V62.0892Z" fill="#519819"/>
<path d="M296.116 45.1408C296.116 47.6427 295.312 49.6604 293.622 50.9517C291.932 52.3237 289.598 52.9693 286.539 52.9693H284.045V62.0892H280.101V37.7966H287.103C290.161 37.7966 292.414 38.4422 293.944 39.6528C295.312 40.8634 296.116 42.7196 296.116 45.1408ZM284.045 49.6604H286.137C288.149 49.6604 289.678 49.3376 290.644 48.6112C291.61 47.8849 292.092 46.755 292.092 45.3022C292.092 43.9302 291.69 42.8811 290.805 42.1547C289.92 41.4283 288.632 41.1055 286.861 41.1055H284.125V49.6604H284.045Z" fill="#444444"/>
<path d="M300.141 62.0892V37.7966H304.084V58.6995H314.385V62.0892H300.141Z" fill="#444444"/>
<path d="M334.746 62.0891L332.332 55.3098H323.077L320.743 62.0891H316.558L325.652 37.7158H329.998L339.092 62.0891H334.746ZM331.286 51.9201L329.032 45.3022C328.871 44.8987 328.63 44.1723 328.308 43.2038C327.986 42.2354 327.825 41.5897 327.664 41.1055C327.342 42.4775 326.94 43.9302 326.377 45.5443L324.204 51.8394H331.286V51.9201Z" fill="#444444"/>
<path d="M362.431 62.0892H357.603L345.692 42.7196H345.531L345.611 43.7688C345.772 45.8672 345.853 47.7234 345.853 49.4183V62.0892H342.231V37.7966H347.06L358.971 57.0854H359.051C359.051 56.8432 358.971 55.8748 358.89 54.2606C358.81 52.6465 358.81 51.4359 358.81 50.5482V37.7966H362.431V62.0892V62.0892Z" fill="#444444"/>
<path d="M376.918 62.0892H372.974V41.1862H365.812V37.7966H384V41.1862H376.918V62.0892Z" fill="#444444"/>
</svg>
