<svg width="74" height="74" viewBox="0 0 74 74" fill="none" xmlns="http://www.w3.org/2000/svg">
<path fill-rule="evenodd" clip-rule="evenodd" d="M71.2562 26.0918C74.2957 43.2877 66.9651 59.3451 50.5756 66.1156C33.8285 73.006 14.5187 65.9359 6.3537 49.6388L4.92334 46.4033L5.87691 49.8784C13.3267 71.9874 39.9671 80.4954 58.9194 67.0743C72.5078 57.3679 76.322 41.6699 71.2562 26.0918Z" fill="#519819"/>
<path fill-rule="evenodd" clip-rule="evenodd" d="M4.8042 46.0437C4.86366 46.1633 4.86366 46.2828 4.92312 46.3426C4.86366 46.2828 4.86366 46.1633 4.8042 46.0437Z" fill="#519819"/>
<path fill-rule="evenodd" clip-rule="evenodd" d="M71.0181 25.4925L71.2565 26.0917L71.0777 25.4326L71.0181 25.4925Z" fill="#519819"/>
<path fill-rule="evenodd" clip-rule="evenodd" d="M6.77088 27.8892C7.42646 25.7323 8.26083 23.6352 9.3932 21.5382C17.737 5.36087 37.0468 -1.76913 53.7343 5.42078L56.1182 6.6191L56.1778 6.49927L53.9131 5.00137C34.0669 -7.04173 8.20123 3.68322 2.3606 26.2715C2.18181 27.0504 2.00301 27.7694 1.82422 28.5483C2.83739 28.069 4.02936 27.7694 5.22132 27.7694C5.81731 27.7694 6.29409 27.7694 6.77088 27.8892Z" fill="#519819"/>
<path fill-rule="evenodd" clip-rule="evenodd" d="M39.6693 36.5171C48.6686 33.5813 50.9929 30.1061 50.9929 27.7694C50.9929 25.912 49.1454 25.4926 47.5958 25.4926C41.5168 25.4327 34.663 31.7239 34.8418 37.8952C34.9014 41.0108 36.5106 44.0665 39.9077 44.0665C43.2452 44.0665 46.8211 41.7897 49.6818 39.2733C50.2182 40.7712 51.3505 41.9695 53.1981 41.9695C56.7144 41.9695 60.5883 38.6741 62.7934 36.1576L62.4954 34.7796C60.5883 36.2775 57.6083 38.8539 55.1052 38.8539C53.9728 38.8539 52.7809 38.3745 52.9001 37.0564L52.9597 36.637C59.7539 34.4201 61.5418 31.4243 61.5418 29.6867C61.5418 28.2487 60.1115 27.9492 58.9791 27.9492C54.5688 27.8893 49.6818 32.2631 49.3838 36.7568C47.2382 38.3745 44.6755 39.9323 42.4108 39.9323C40.9208 39.9323 39.3713 39.3332 39.4905 37.5357L39.6693 36.5171ZM46.2847 28.2487C46.6423 28.1289 46.821 28.4285 46.821 28.788C46.8806 29.5669 44.0199 32.8024 39.9077 34.2403C41.2188 31.1247 43.9603 28.8479 46.2847 28.2487ZM58.0255 30.0462C58.2639 29.9863 58.4427 30.1661 58.4427 30.4656C58.5023 31.0648 56.3568 33.5213 53.2577 34.5998C54.1516 32.2032 56.2376 30.5256 58.0255 30.0462Z" fill="#519819"/>
<path fill-rule="evenodd" clip-rule="evenodd" d="M9.92966 36.0377C9.92966 36.1576 9.98925 36.2774 9.98925 36.3373C9.63166 37.5356 9.87006 39.5129 10.5852 42.5686C14.3399 59.6446 35.0801 70.07 49.8605 59.6446C42.0531 61.3822 36.5701 62.6404 28.7031 58.9256C19.823 54.7315 16.4855 48.1407 15.0551 39.393C17.8562 39.6327 20.2402 39.9922 23.2797 40.831C36.3913 44.4859 41.0399 50.4775 49.8605 59.6446C45.5694 48.0808 34.3649 39.8724 22.5645 36.3373C34.3649 32.9221 45.629 24.7735 49.9797 13.2098C41.1591 22.317 36.3913 28.3086 23.2797 31.8436C20.2402 32.6824 17.7966 33.0419 15.0551 33.2217C16.5451 24.474 19.9422 17.9431 28.8223 13.8089C36.6893 10.1541 42.1723 11.4722 49.9797 13.2098C35.2589 2.66457 14.4591 12.9701 10.5852 30.0461C10.168 31.9635 9.87005 33.4613 9.81046 34.5998C9.39327 32.5027 7.54572 30.885 5.28099 30.885C2.71826 30.885 0.632324 32.982 0.632324 35.4985C0.632324 38.0749 2.71827 40.1719 5.22139 40.1719C7.66492 40.2318 9.69126 38.3745 9.92966 36.0377Z" fill="#519819"/>
<path fill-rule="evenodd" clip-rule="evenodd" d="M65.5351 28.6082C67.2039 38.2547 64.7008 43.8269 59.3965 51.3763L62.2572 49.0396C70.7798 40.1121 70.1242 24.4141 61.8996 15.1271C57.7278 10.3938 55.5822 9.79463 49.98 8.23682C58.9197 13.2098 63.6876 17.9432 65.5351 28.6082Z" fill="#519819"/>
</svg>
