<svg width="22" height="24" viewBox="0 0 22 24" fill="none" xmlns="http://www.w3.org/2000/svg">
<g clip-path="url(#clip0_414_100)">
<path d="M19.5152 6.66667H16.7273C15.8788 2.66667 13.697 0 11.0303 0C8.36364 0 6.18182 2.66667 5.21212 6.66667H2.42424C1.81818 6.66667 1.21212 7.15152 1.21212 7.75758L0 22.6667C0 23.3939 0.484848 24 1.21212 24H20.7273C21.4545 24 21.9394 23.3939 21.9394 22.6667L20.7273 7.75758C20.7273 7.15152 20.2424 6.66667 19.5152 6.66667ZM11.0303 2.42424C12.2424 2.42424 13.5758 4 14.303 6.66667H7.75758C8.36364 4 9.69697 2.42424 11.0303 2.42424ZM2.54545 21.5758L3.51515 9.09091H4.84848C4.84848 9.57576 4.72727 10.1818 4.72727 10.7879C4.72727 11.5152 5.21212 12 5.93939 12C6.66667 12 7.15152 11.5152 7.15152 10.7879C7.15152 10.1818 7.15152 9.69697 7.27273 9.09091H14.6667C14.6667 9.57576 14.7879 10.1818 14.7879 10.7879C14.7879 11.5152 15.2727 12 16 12C16.7273 12 17.2121 11.5152 17.2121 10.7879C17.2121 10.1818 17.2121 9.69697 17.0909 9.09091H18.4242L19.3939 21.5758H2.54545Z" fill="#519819"/>
</g>
<defs>
<clipPath id="clip0_414_100">
<rect width="21.9394" height="24" fill="white"/>
</clipPath>
</defs>
</svg>
