<svg width="24" height="24" viewBox="0 0 24 24" fill="none" xmlns="http://www.w3.org/2000/svg">
<path d="M23.6571 22.0571L16.9143 15.3143C18.1714 13.7143 18.9714 11.6571 18.9714 9.48571C18.9714 4.22857 14.7429 0 9.48571 0C4.22857 0 0 4.22857 0 9.48571C0 14.7429 4.22857 18.9714 9.48571 18.9714C11.6571 18.9714 13.7143 18.1714 15.3143 16.9143L22.0571 23.6571C22.2857 23.8857 22.6286 24 22.8571 24C23.0857 24 23.4286 23.8857 23.6571 23.6571C24.1143 23.2 24.1143 22.5143 23.6571 22.0571ZM9.48571 16.6857C5.48571 16.6857 2.28571 13.4857 2.28571 9.48571C2.28571 5.48571 5.48571 2.28571 9.48571 2.28571C13.4857 2.28571 16.6857 5.48571 16.6857 9.48571C16.6857 13.4857 13.4857 16.6857 9.48571 16.6857Z" fill="#519819"/>
</svg>
