<svg width="24" height="24" viewBox="0 0 24 24" fill="none" xmlns="http://www.w3.org/2000/svg">
<g clip-path="url(#clip0_426_77)">
<path d="M16.68 12.36C18.36 10.68 19.32 8.28 18.72 5.64C18.12 2.88 15.96 0.72 13.2 0.24C8.64001 -0.84 4.44001 2.76 4.44001 7.2C4.44001 9.24 5.28 11.04 6.60001 12.36C3.72001 14.28 1.32001 17.88 4.92483e-06 22.44C-0.239995 23.04 0.240005 23.76 0.840005 23.88C1.44 24 2.04 23.64 2.28 23.04C3.60001 18.6 6.00001 15.12 8.88001 13.8C9.72001 14.16 10.68 14.4 11.64 14.4C12.6 14.4 13.56 14.16 14.4 13.92C17.28 15.24 19.68 18.72 21 23.28C21.24 23.88 21.84 24.24 22.44 24.12C23.04 24 23.52 23.28 23.28 22.68C21.96 17.88 19.56 14.28 16.68 12.36ZM6.84 7.2C6.84 4.56 9 2.4 11.64 2.4C14.28 2.4 16.44 4.56 16.44 7.2C16.44 9.84 14.28 12 11.64 12C9 12 6.84 9.84 6.84 7.2Z" fill="#519819"/>
</g>
<defs>
<clipPath id="clip0_426_77">
<rect width="23.4" height="24" fill="white"/>
</clipPath>
</defs>
</svg>
